<svg width="1400" height="810" viewBox="0 0 1400 810" fill="none" xmlns="http://www.w3.org/2000/svg">
<g clip-path="url(#clip0_780_22857)">
<g clip-path="url(#clip1_780_22857)">
<g opacity="0.44">
<path d="M275.968 380.105C216.667 360.031 165.236 310.199 154.721 248.347C144.205 186.464 183.081 116.75 244.198 103.324C273.1 96.9955 304.296 102.653 331.923 92.009C383.991 71.9353 401.708 3.97877 449.824 -24.3737C496.188 -51.6714 559.727 -31.9813 594.269 9.34881C628.811 50.6789 638.88 107.704 636.777 161.596C633.654 240.772 600.132 326.149 528.563 359.616C468.242 387.809 340.718 395.832 276 380.137" fill="url(#paint0_linear_780_22857)"/>
</g>
</g>
<g clip-path="url(#clip2_780_22857)">
<path d="M1201.45 587.957C1212.25 630.16 1202.79 678.975 1170.8 708.451C1138.81 737.927 1083.56 741.511 1052.6 710.878C1037.97 696.385 1029.44 676.032 1012.79 663.911C981.392 641.071 935.177 656.349 900.467 638.938C867.034 622.153 854.407 577.62 865.346 541.862C876.284 506.104 905.617 478.72 937.752 459.646C984.96 431.614 1047.27 419.011 1093.86 448.178C1133.1 472.776 1186.07 544.229 1201.47 587.945" fill="#DDD2F3"/>
</g>
</g>
<defs>
<linearGradient id="paint0_linear_780_22857" x1="153" y1="175.5" x2="637" y2="175.5" gradientUnits="userSpaceOnUse">
<stop offset="0.05" stop-color="#9668F7"/>
<stop offset="1" stop-color="#78D8FB"/>
</linearGradient>
<clipPath id="clip0_780_22857">
<rect width="1400" height="810" fill="white"/>
</clipPath>
<clipPath id="clip1_780_22857">
<rect width="484" height="425" fill="white" transform="translate(153 -37)"/>
</clipPath>
<clipPath id="clip2_780_22857">
<rect width="336.937" height="294.473" fill="white" transform="translate(1005.58 817.054) rotate(-122.971)"/>
</clipPath>
</defs>
</svg>
